Coordinates
version=1
nRows=16
nColumns=22
inDegrees=yes

Units are S.I. units (second, meters, Newtons, ...)
If the header above contains a line with 'inDegrees', this indicates whether rotational values are in degrees (yes) or radians (no).

endheader
time	pelvis_tilt	pelvis_list	pelvis_rotation	pelvis_tx	pelvis_ty	pelvis_tz	hip_flexion_r	hip_adduction_r	hip_rotation_r	knee_angle_r	ankle_angle_r	subtalar_angle_r	hip_flexion_l	hip_adduction_l	hip_rotation_l	knee_angle_l	ankle_angle_l	subtalar_angle_l	lumbar_extension	lumbar_bending	lumbar_rotation
      3.79000000	     -0.12032204	     -2.28060319	    -88.65458549	      1.22115400	      0.89599172	      0.28477799	     13.53030476	      1.95765601	     -2.07656774	    -38.25183422	     17.32356471	     -9.08478160	      8.10787987	     -1.98939738	     -6.30846015	    -23.84401745	     14.01430826	      0.54848141	    -11.96385801	      0.27373091	      3.16426863
      3.80000000	     -0.08916734	     -2.29674714	    -88.88804518	      1.22318453	      0.89614464	      0.28641004	     13.32518222	      2.10320069	     -1.86747781	    -37.26949814	     17.47122692	     -8.82966367	      7.79754790	     -1.82233707	     -6.63758763	    -23.60939601	     14.09274815	      0.39214067	    -11.89660533	      0.15677792	      3.06038094
      3.81000000	     -0.03027700	     -2.30540587	    -89.08445275	      1.22520108	      0.89629880	      0.28810482	     13.09135576	      2.17998547	     -1.65294675	    -36.33866274	     17.61680302	     -8.61980785	      7.47051751	     -1.62301880	     -6.94336797	    -23.32931051	     14.14170099	      0.23874486	    -11.78952509	      0.01818856	      2.96338212
      3.82000000	      0.04969661	     -2.31281669	    -89.24184978	      1.22724906	      0.89647452	      0.28986682	     12.81898147	      2.18869315	     -1.45212447	    -35.44798279	     17.76323512	     -8.45491273	      7.11795378	     -1.39626749	     -7.23551345	    -22.99795075	     14.16422189	      0.08157910	    -11.65373588	     -0.12292030	      2.87963820
      3.83000000	      0.14295911	     -2.32207502	    -89.36077808	      1.22928935	      0.89668223	      0.29171246	     12.50411997	      2.13946631	     -1.28858788	    -34.59338296	     17.89474662	     -8.33054889	      6.73669217	     -1.15301056	     -7.50211649	    -22.61845338	     14.16332174	     -0.08607500	    -11.49160116	     -0.26913411	      2.79369010
      3.84000000	      0.24419894	     -2.33823900	    -89.44601341	      1.23132797	      0.89693274	      0.29364950	     12.13975554	      2.03906051	     -1.16927557	    -33.76580149	     18.02008427	     -8.24132500	      6.31946873	     -0.89911725	     -7.75189025	    -22.18987845	     14.13983197	     -0.26481789	    -11.31047227	     -0.41005465	      2.71134473
      3.85000000	      0.34616127	     -2.36248336	    -89.49712917	      1.23336174	      0.89722932	      0.29566598	     11.72196650	      1.89813277	     -1.09994509	    -32.95245024	     18.12582240	     -8.17603085	      5.86902467	     -0.64314074	     -7.98333786	    -21.71725929	     14.10118235	     -0.45758155	    -11.11982527	     -0.53952744	      2.62600852
      3.86000000	      0.44773251	     -2.38885806	    -89.52496640	      1.23536616	      0.89755513	      0.29778077	     11.26067109	      1.72162613	     -1.08668514	    -32.15571692	     18.21925194	     -8.12720600	      5.39253346	     -0.38946032	     -8.20700694	    -21.20827915	     14.04478973	     -0.64428162	    -10.90860645	     -0.65925773	      2.54395079
      3.87000000	      0.54770739	     -2.41014586	    -89.53056792	      1.23734542	      0.89789595	      0.29994210	     10.76110768	      1.52549419	     -1.08229891	    -31.35852837	     18.32797167	     -8.08058268	      4.90354201	     -0.13366852	     -8.38906231	    -20.66291870	     13.95792201	     -0.80708856	    -10.68041100	     -0.76770140	      2.47241816
      3.88000000	      0.63779398	     -2.46868901	    -89.52636171	      1.23927404	      0.89830892	      0.30221910	     10.18626264	      1.30457347	     -1.17691594	    -30.57346940	     18.36506848	     -8.02067577	      4.34572286	      0.10007912	     -8.63080494	    -20.07740609	     13.87988859	     -0.98340649	    -10.47626914	     -0.85669028	      2.39356559
      3.89000000	      0.71904876	     -2.51321361	    -89.51512662	      1.24113979	      0.89870156	      0.30453985	      9.59171204	      1.08155191	     -1.28687083	    -29.78348202	     18.40556991	     -7.93171579	      3.79378476	      0.32159834	     -8.85922455	    -19.47669284	     13.79006247	     -1.13237702	    -10.24731341	     -0.93181712	      2.32696824
      3.90000000	      0.79070199	     -2.55863888	    -89.50561397	      1.24291223	      0.89908647	      0.30691591	      8.97182160	      0.86058080	     -1.42916639	    -28.99771836	     18.42595066	     -7.80856324	      3.22761804	      0.52451553	     -9.10655296	    -18.85840069	     13.69815284	     -1.25192190	    -10.00842081	     -0.99648906	      2.26641860
      3.91000000	      0.85331836	     -2.59946089	    -89.49962205	      1.24460787	      0.89944548	      0.30932385	      8.33342466	      0.64492811	     -1.59246133	    -28.20492710	     18.43720539	     -7.64287511	      2.65749795	      0.71200421	     -9.37119315	    -18.22642597	     13.60799962	     -1.33837052	     -9.75999333	     -1.04921459	      2.21540521
      3.92000000	      0.90716824	     -2.62846478	    -89.50644120	      1.24619511	      0.89975597	      0.31175860	      7.69218637	      0.44144013	     -1.77036362	    -27.40736353	     18.44463339	     -7.44028357	      2.09335037	      0.88372791	     -9.65141201	    -17.58752512	     13.52114482	     -1.38727934	     -9.49300000	     -1.09559511	      2.17362901
      3.93000000	      0.95423475	     -2.64662127	    -89.52557195	      1.24768032	      0.90001234	      0.31420402	      7.05145461	      0.25098765	     -1.96039288	    -26.60219702	     18.45248815	     -7.21309309	      1.53800197	      1.04329717	     -9.94447518	    -16.94730462	     13.43973960	     -1.39855929	     -9.21256953	     -1.13761099	      2.14278308
      3.94000000	      0.99348736	     -2.64453204	    -89.55917305	      1.24905486	      0.90019084	      0.31665447	      6.42437869	      0.07772966	     -2.16025697	    -25.78939234	     18.46742989	     -6.98800994	      1.00122293	      1.18959371	    -10.24926223	    -16.30310662	     13.36625254	     -1.37483510	     -8.90907719	     -1.17451929	      2.11847467
